# xmcd CD database file
#
# Track frame offsets:
#	150
#	17707
#	32115
#	44124
#	55830
#	74888
#	93647
#
# Disc length: 1520 seconds
#
# Revision: 0
# Processed by: cddbd v1.5.2PL0 Copyright (c) Steve Scherf et al.
# Submitted via: CDex 1.70beta2
#
DISCID=6805ee07
DTITLE=Moonshine - Xmas Xtra
DYEAR=2005
DGENRE=Country
TTITLE0=Swingin' Home for Christmas
TTITLE1=Rockin' Around the Christmas Tree
TTITLE2=Christmas Time is Coming
TTITLE3=Jingle Bells
TTITLE4=Honky Tonk Christmas
TTITLE5=Great Day
TTITLE6=Love Hurts
EXTD=YEAR: 2005
EXTT0=
EXTT1=
EXTT2=
EXTT3=
EXTT4=
EXTT5=
EXTT6=
PLAYORDER=
